<svg width="127" height="31" viewBox="0 0 127 31" fill="none" xmlns="http://www.w3.org/2000/svg">
<path d="M12.32 30.48C5.12 30.48 0.2 27.04 0.04 20.32H5.36C5.52 24.84 8.8 26.08 12.48 26.08C15.92 26.08 18.36 24.64 18.36 21.96C18.36 19.92 17.2 18.8 11.12 17.6C4.12 16.32 0.8 13.96 0.8 8.76C0.8 4 5.04 0.719998 11.48 0.719998C19.24 0.719998 22.96 4.6 23.16 10.36H17.96C17.76 6.84 15.76 5.12 11.48 5.12C8.36 5.12 6.32 6.48 6.32 8.6C6.32 10.72 7.24 11.88 13.08 13C21.6 14.56 23.88 17.24 23.88 21.72C23.88 27.32 19.08 30.48 12.32 30.48ZM26.9794 30V9.2H31.9794V30H26.9794ZM26.9794 5.88V1.2H32.0194V5.88H26.9794ZM45.6772 30.48C39.2372 30.48 35.3972 25.8 35.3972 19.6C35.3972 13.4 39.2372 8.72 45.6772 8.72C52.1172 8.72 55.9572 13.24 55.9572 20V21.2H40.3972C40.8372 24.44 42.6772 26.52 45.6772 26.52C48.1172 26.52 49.7572 25.48 50.6372 23.64H55.5572C54.1972 27.76 50.6372 30.48 45.6772 30.48ZM40.4372 17.6H50.8772C50.3572 14.56 48.5572 12.68 45.6772 12.68C42.7972 12.68 40.9972 14.56 40.4372 17.6ZM59.3631 1.2H64.4031V24.16C64.4031 25.52 64.8831 26.12 66.4031 26.12H69.1231V30H65.1231C61.6031 30 59.3631 28.88 59.3631 24.68V1.2ZM81.9719 30.48C75.2919 30.48 71.4519 25.8 71.4519 19.6C71.4519 13.4 75.2919 8.72 81.9719 8.72C88.6519 8.72 92.4919 13.4 92.4919 19.6C92.4919 25.8 88.6519 30.48 81.9719 30.48ZM76.5719 19.6C76.5719 23.6 78.2519 26.28 81.9719 26.28C85.6919 26.28 87.3719 23.6 87.3719 19.6C87.3719 15.6 85.6919 12.92 81.9719 12.92C78.2519 12.92 76.5719 15.6 76.5719 19.6ZM121.966 17.48C121.966 14.96 120.846 13.12 118.406 13.12C116.566 13.12 113.966 14.24 113.966 18.56V30H108.926V17.48C108.926 14.96 107.806 13.12 105.366 13.12C103.566 13.12 100.966 14.24 100.966 18.56V30H95.9256V9.2H100.806V12.08C102.046 10.16 104.046 8.72 106.966 8.72C109.886 8.72 112.046 10.2 113.126 12.64C114.526 10.44 116.806 8.72 120.006 8.72C124.366 8.72 126.966 12 126.966 16.88V30H121.966V17.48Z" fill="black"/>
</svg>
